<?xml version="1.0" standalone="no"?>
<!DOCTYPE svg PUBLIC "-//W3C//DTD SVG 20010904//EN"
 "http://www.w3.org/TR/2001/REC-SVG-20010904/DTD/svg10.dtd">
<svg version="1.0" xmlns="http://www.w3.org/2000/svg"
 width="512.000000pt" height="512.000000pt" viewBox="0 0 512.000000 512.000000"
 preserveAspectRatio="xMidYMid meet">

<g transform="translate(0.000000,512.000000) scale(0.100000,-0.100000)"
fill="#000000" stroke="none">
<path d="M725 4053 c-394 -456 -718 -838 -722 -851 -3 -13 0 -33 7 -45 7 -12
229 -209 494 -438 l481 -415 5 -890 5 -889 28 -60 c37 -79 114 -156 191 -192
l61 -28 1560 0 1560 0 56 26 c106 50 185 143 214 254 12 48 15 124 15 400 l0
342 78 39 c97 49 223 169 275 264 61 111 82 198 82 330 -1 134 -16 195 -78
314 -50 96 -153 204 -247 259 -100 58 -177 79 -312 85 l-118 4 0 522 0 521
-300 300 -300 300 -232 5 -232 5 -136 297 c-74 163 -144 306 -154 317 -11 12
-29 21 -40 21 -12 0 -228 -94 -481 -210 -394 -179 -462 -207 -475 -196 -8 8
-125 109 -260 225 -209 181 -249 211 -277 211 -30 0 -74 -49 -748 -827z m2308
395 l106 -233 -515 -5 -516 -5 -19 -24 c-18 -22 -19 -49 -19 -702 l0 -679 -39
26 c-69 45 -119 54 -310 54 l-176 0 -218 478 c-119 263 -217 483 -217 488 0 9
1792 834 1811 834 4 0 54 -105 112 -232z m627 -565 c0 -202 8 -249 47 -302 48
-63 82 -71 311 -71 l202 0 0 -492 0 -493 -77 -39 c-50 -26 -102 -65 -152 -113
l-76 -73 -645 0 c-613 0 -647 1 -687 20 -26 11 -104 79 -208 181 l-165 162 0
697 c0 383 3 700 7 703 3 4 330 7 725 7 l718 0 0 -187z m314 -231 c-92 -2
-141 1 -150 9 -11 9 -14 44 -14 153 l0 141 150 -150 150 -150 -136 -3z m-2037
-938 c19 -10 144 -124 278 -254 191 -187 255 -244 301 -266 l59 -29 632 -3
631 -3 -21 -57 c-32 -85 -31 -307 0 -407 85 -267 326 -449 616 -463 l107 -5 0
-312 c0 -346 -5 -380 -62 -449 -17 -21 -54 -49 -82 -62 l-51 -24 -1505 0
c-1045 0 -1517 3 -1544 11 -55 15 -131 89 -150 146 -14 41 -16 164 -16 1047 0
950 1 1003 19 1041 20 44 41 66 86 89 46 24 651 24 702 0z m2625 -305 c356
-74 527 -497 324 -803 -97 -145 -252 -227 -430 -227 -141 -1 -257 44 -354 135
-221 207 -229 540 -17 751 127 127 302 180 477 144z"/>
<path d="M2470 3723 c-50 -19 -68 -84 -32 -116 17 -15 67 -17 514 -17 467 0
496 1 511 18 24 26 21 75 -4 98 -20 18 -44 19 -498 21 -262 1 -483 -1 -491 -4z"/>
<path d="M2437 3362 c-24 -26 -21 -75 4 -98 20 -18 48 -19 781 -19 l760 0 19
24 c25 30 24 66 -1 91 -20 20 -33 20 -783 20 -727 0 -765 -1 -780 -18z"/>
<path d="M2437 3022 c-24 -26 -21 -75 4 -98 20 -18 48 -19 781 -19 l760 0 19
24 c25 30 24 66 -1 91 -20 20 -33 20 -783 20 -727 0 -765 -1 -780 -18z"/>
<path d="M2437 2682 c-26 -29 -22 -77 10 -101 26 -21 28 -21 780 -19 l755 3
19 24 c25 30 24 66 -1 91 -20 20 -33 20 -783 20 -727 0 -765 -1 -780 -18z"/>
<path d="M1450 1268 c-27 -29 -25 -64 5 -93 l24 -25 364 0 c333 0 367 2 385
18 32 26 37 63 12 95 l-21 27 -374 0 c-372 0 -374 0 -395 -22z"/>
<path d="M1474 806 c-50 -22 -59 -72 -19 -111 l24 -25 1345 0 c964 0 1352 3
1369 11 55 25 53 98 -3 126 -38 19 -2672 18 -2716 -1z"/>
<path d="M4740 2183 c-8 -3 -104 -93 -212 -201 l-197 -196 -80 77 c-82 81
-107 91 -148 62 -28 -20 -37 -59 -19 -93 8 -15 59 -71 114 -124 86 -83 106
-98 134 -98 29 0 56 24 265 233 216 216 233 235 233 268 0 49 -47 87 -90 72z"/>
</g>
</svg>
